<?xml version="1.0" standalone="no"?>
<!DOCTYPE svg PUBLIC "-//W3C//DTD SVG 20010904//EN"
 "http://www.w3.org/TR/2001/REC-SVG-20010904/DTD/svg10.dtd">
<svg version="1.0" xmlns="http://www.w3.org/2000/svg"
 width="130" height="130" viewBox="0 0 673.000000 312.000000"
 preserveAspectRatio="xMidYMid meet">

<g transform="translate(0.000000,312.000000) scale(0.100000,-0.100000)"
fill="#000000" stroke="none">
<path d="M2454 2585 c-14 -10 -49 -15 -134 -15 l-115 -1 -78 -124 -79 -125
-199 0 c-109 0 -199 2 -199 5 0 3 12 23 26 45 l27 40 107 0 c89 0 109 -3 114
-16 8 -20 55 -15 70 9 22 34 -38 77 -67 48 -7 -7 -56 -11 -124 -11 l-112 0
-41 -60 -41 -60 -238 0 -238 0 -44 68 -44 67 -118 3 c-84 2 -125 7 -141 18
-21 13 -25 13 -47 -5 -21 -16 -22 -22 -11 -45 13 -30 52 -36 72 -11 10 12 37
15 120 15 l108 0 42 -65 42 -65 239 0 c132 0 239 -4 239 -8 0 -4 -13 -29 -30
-55 l-30 -47 -460 0 -461 0 -41 65 -42 65 -117 0 c-93 0 -119 3 -129 16 -30
35 -98 -5 -74 -43 14 -23 57 -28 74 -9 10 13 35 16 120 16 l108 0 42 -70 42
-70 477 0 476 0 43 70 44 70 220 2 221 3 74 118 75 117 106 0 c82 0 109 -3
123 -16 24 -21 57 -9 65 23 5 19 2 30 -11 40 -23 16 -27 16 -51 -2z"/>
<path d="M4926 2574 c-9 -24 -8 -31 10 -48 20 -20 38 -20 58 -1 12 13 37 15
123 13 l107 -3 74 -117 75 -118 128 0 c108 0 129 -2 129 -15 0 -13 -58 -15
-464 -15 l-464 0 -78 125 -78 125 -118 0 c-67 0 -119 4 -123 10 -11 18 -54 11
-65 -10 -24 -44 38 -83 70 -45 11 13 33 15 118 13 l106 -3 76 -120 76 -120
476 -3 477 -2 21 30 21 30 325 0 325 0 41 65 42 65 109 0 c83 0 112 -4 123
-15 33 -33 81 -6 70 39 -7 29 -38 39 -63 20 -13 -9 -52 -13 -136 -14 l-117 0
-45 -70 -45 -70 -305 0 c-321 0 -333 2 -287 43 26 24 213 25 232 1 17 -19 60
-14 74 9 24 37 -35 75 -67 43 -12 -13 -40 -16 -134 -16 l-119 0 -23 -40 -22
-40 -133 0 -134 0 -78 125 -78 125 -118 0 c-67 0 -119 4 -123 10 -10 16 -62
12 -69 -6z"/>
<path d="M5135 2085 l-40 -64 -220 -1 -220 0 -78 -125 -79 -125 -103 0 c-79 0
-105 3 -115 15 -16 19 -54 19 -70 0 -10 -12 -10 -21 -2 -40 13 -29 52 -34 72
-10 10 12 37 15 125 15 l113 0 75 118 74 117 202 3 203 2 -23 -40 -23 -40
-113 0 c-63 0 -113 4 -113 9 0 5 -9 13 -21 16 -22 7 -59 -18 -59 -40 0 -22 37
-47 59 -40 12 3 21 11 21 16 0 5 52 9 119 9 l120 0 33 55 33 55 246 0 247 0
38 -65 39 -65 121 0 c96 0 124 -3 134 -15 28 -34 77 -5 66 39 -7 29 -38 39
-63 20 -13 -9 -51 -13 -130 -14 l-111 0 -41 65 -41 65 -240 0 c-132 0 -240 2
-240 5 0 3 15 28 33 55 l32 50 458 0 457 0 46 -70 45 -70 115 0 c87 0 120 -4
139 -16 30 -20 65 -4 65 29 0 43 -44 63 -70 32 -10 -12 -37 -15 -125 -15
l-113 0 -38 65 -39 65 -480 0 -480 0 -40 -65z"/>
<path d="M1064 2045 l-16 -25 -328 0 -328 0 -38 -65 -39 -65 -113 0 c-83 0
-119 4 -135 15 -20 13 -25 13 -45 -1 -26 -18 -28 -37 -6 -58 19 -20 38 -20 58
-1 11 12 41 15 133 15 l119 0 42 65 41 65 311 0 310 0 -16 -25 c-16 -24 -20
-25 -127 -25 -87 0 -114 3 -128 16 -33 29 -80 -7 -63 -49 9 -24 34 -29 60 -12
18 11 53 15 141 15 l118 0 23 40 23 40 137 0 137 0 75 -120 75 -120 113 0 c88
0 117 -3 128 -15 34 -33 81 -6 70 40 -5 19 -13 25 -35 25 -16 0 -34 -7 -41
-15 -10 -11 -35 -15 -110 -15 -113 0 -99 -10 -195 143 l-67 107 -130 0 c-99 0
-129 3 -126 13 4 9 108 13 466 15 l460 2 79 -125 78 -125 114 0 c93 0 118 -3
133 -17 15 -13 23 -14 43 -5 29 13 33 43 9 66 -20 20 -38 20 -54 1 -11 -13
-34 -15 -123 -13 l-111 3 -74 118 -74 117 -479 0 -479 0 -16 -25z"/>
<path d="M1804 566 c-64 -28 -82 -93 -40 -143 17 -20 45 -34 97 -48 78 -22 95
-38 56 -56 -32 -15 -74 -4 -82 20 -4 14 -15 18 -50 18 -42 0 -45 -2 -45 -27 0
-38 38 -69 103 -82 111 -23 197 22 197 103 0 47 -32 83 -82 93 -83 16 -108 27
-108 45 0 28 40 34 72 11 17 -12 43 -20 68 -20 33 0 40 3 40 20 0 24 -31 57
-66 70 -36 14 -124 12 -160 -4z"/>
<path d="M2177 574 c-4 -4 -7 -22 -7 -41 l0 -33 55 0 55 0 0 -125 0 -125 55 0
55 0 0 125 0 125 53 0 52 0 -1 37 -1 38 -155 3 c-85 1 -157 -1 -161 -4z"/>
<path d="M2715 561 c-67 -31 -97 -110 -75 -201 14 -59 50 -94 113 -111 84 -22
174 8 212 71 27 47 27 142 0 188 -40 67 -163 93 -250 53z m139 -72 c22 -17 26
-28 26 -73 0 -68 -19 -96 -67 -96 -55 0 -73 22 -73 89 0 61 5 72 35 89 29 17
49 15 79 -9z"/>
<path d="M3211 562 c-49 -26 -71 -73 -71 -150 0 -101 33 -145 121 -164 98 -20
184 22 196 95 l6 37 -47 0 c-32 0 -46 -4 -46 -13 0 -45 -87 -64 -114 -25 -24
34 -21 123 5 149 28 28 68 22 94 -16 17 -25 26 -30 63 -30 39 0 42 2 42 26 0
34 -35 78 -76 95 -47 20 -132 18 -173 -4z"/>
<path d="M3628 415 l-3 -165 53 0 52 0 0 38 c0 31 6 43 30 60 l29 22 31 -52
c16 -29 30 -56 30 -60 0 -5 29 -8 65 -8 l64 0 -60 96 -60 95 40 48 c22 26 47
54 56 61 27 22 16 30 -44 30 l-59 0 -58 -72 -59 -71 -3 71 -3 72 -49 0 -49 0
-3 -165z"/>
<path d="M4390 415 l0 -165 50 0 50 0 0 165 0 165 -50 0 -50 0 0 -165z"/>
<path d="M4670 416 l0 -166 103 0 c119 0 160 15 192 70 27 46 27 142 0 188
-29 48 -75 65 -192 70 l-103 5 0 -167z m192 67 c13 -12 18 -30 18 -70 0 -66
-24 -96 -73 -91 l-32 3 -3 88 -3 87 37 0 c21 0 46 -7 56 -17z"/>
</g>
</svg>
